<?xml version="1.0" standalone="no"?>
<!DOCTYPE svg PUBLIC "-//W3C//DTD SVG 20010904//EN"
 "http://www.w3.org/TR/2001/REC-SVG-20010904/DTD/svg10.dtd">
<svg version="1.0" xmlns="http://www.w3.org/2000/svg"
 width="612.000000pt" height="326.000000pt" viewBox="0 0 612.000000 326.000000"
 preserveAspectRatio="xMidYMid meet">

<g transform="translate(0.000000,326.000000) scale(0.100000,-0.100000)"
fill="#000000" stroke="none">
<path d="M3910 2666 c0 -2 8 -10 18 -17 15 -13 16 -12 3 4 -13 16 -21 21 -21
13z"/>
<path d="M2391 2613 c-35 -31 -56 -109 -40 -150 9 -25 29 -31 29 -10 0 22 34
47 63 47 28 0 57 -23 57 -47 0 -8 5 -13 12 -11 38 13 19 135 -27 174 -36 31
-55 30 -94 -3z"/>
<path d="M3646 2629 c-33 -9 -66 -36 -66 -55 0 -7 -6 -14 -12 -17 -10 -3 -10
-7 -1 -17 8 -8 32 -11 72 -8 34 2 61 1 61 -4 0 -4 5 -8 11 -8 5 0 7 5 4 10 -8
13 16 13 51 0 21 -8 31 -8 42 4 25 25 -22 41 -125 41 -61 0 -84 3 -70 8 12 5
55 7 95 4 39 -3 72 -2 72 3 0 27 -84 52 -134 39z"/>
<path d="M1200 2600 c-35 -34 -37 -66 -6 -84 14 -8 20 -8 23 1 2 7 13 23 24
37 19 24 22 25 48 11 16 -8 31 -23 34 -35 6 -23 29 -26 47 -5 10 12 8 22 -11
52 -30 49 -36 53 -86 53 -34 0 -49 -6 -73 -30z"/>
<path d="M3950 2598 c0 -9 5 -20 10 -23 13 -8 13 5 0 25 -8 13 -10 13 -10 -2z"/>
<path d="M3941 2544 c0 -11 3 -14 6 -6 3 7 2 16 -1 19 -3 4 -6 -2 -5 -13z"/>
<path d="M1290 2534 c0 -8 5 -12 10 -9 6 4 8 11 5 16 -9 14 -15 11 -15 -7z"/>
<path d="M4750 2520 c-85 -56 -90 -60 -90 -88 0 -15 4 -32 8 -38 9 -15 74 -54
89 -54 14 0 9 36 -8 56 -9 11 -8 22 5 49 30 62 65 67 106 15 29 -36 29 -37 11
-66 -9 -16 -20 -37 -24 -47 -6 -16 -4 -16 31 -2 80 34 104 86 58 128 -32 30
-110 77 -127 77 -8 0 -34 -14 -59 -30z"/>
<path d="M4778 2453 c7 -3 16 -2 19 1 4 3 -2 6 -13 5 -11 0 -14 -3 -6 -6z"/>
<path d="M2406 2435 c4 -8 8 -15 10 -15 2 0 4 7 4 15 0 8 -4 15 -10 15 -5 0
-7 -7 -4 -15z"/>
<path d="M2461 2434 c0 -11 3 -14 6 -6 3 7 2 16 -1 19 -3 4 -6 -2 -5 -13z"/>
<path d="M1074 2406 c-114 -41 -190 -82 -213 -115 -52 -74 -210 -401 -245
-508 -10 -29 -15 -62 -11 -73 8 -26 75 -64 150 -85 33 -10 76 -25 95 -35 19
-10 53 -23 75 -28 35 -10 38 -10 21 3 -14 11 -17 21 -12 42 4 15 10 40 13 55
3 15 10 25 15 22 6 -4 8 2 3 15 -3 11 -3 21 2 21 4 0 14 14 22 31 8 19 16 27
21 20 3 -7 14 -9 22 -6 9 4 19 2 23 -4 13 -22 20 -10 19 31 -1 24 1 45 5 48
20 16 62 94 58 108 -4 14 -5 14 -6 -2 -1 -15 -9 -11 -42 22 -22 22 -45 43 -52
45 -9 3 -9 9 1 26 22 37 8 143 -21 163 -12 7 36 76 59 85 8 3 12 8 10 12 -2 3
6 19 19 35 20 25 26 28 39 17 9 -8 16 -9 16 -3 0 6 -6 12 -12 15 -10 3 -8 10
5 25 10 11 17 27 15 35 -2 12 -19 9 -94 -17z"/>
<path d="M1390 2414 c0 -13 5 -24 11 -24 5 0 7 -4 4 -10 -3 -5 1 -10 9 -10 9
0 16 -6 16 -14 0 -8 6 -16 14 -19 8 -3 33 -30 56 -61 l41 -55 -15 -46 c-19
-53 -20 -93 -5 -132 8 -23 7 -30 -8 -40 -42 -30 -84 -78 -80 -92 2 -9 9 -15
16 -13 7 1 10 -2 7 -7 -3 -5 5 -28 17 -52 13 -24 21 -52 19 -63 -2 -11 0 -16
7 -12 6 4 11 2 11 -3 0 -6 -5 -11 -12 -11 -6 0 -8 -3 -5 -6 4 -4 13 -2 20 5 8
6 23 9 33 5 16 -5 16 -4 4 5 -13 9 -12 11 5 11 31 0 43 -12 60 -59 16 -47 21
-151 6 -151 -5 0 -11 -6 -14 -14 -3 -8 25 2 68 24 40 22 101 44 136 50 79 14
123 34 138 63 9 18 7 35 -13 92 -55 162 -219 496 -263 537 -31 29 -110 67
-215 104 l-68 23 0 -25z"/>
<path d="M4780 2429 c0 -5 5 -7 10 -4 6 3 10 8 10 11 0 2 -4 4 -10 4 -5 0 -10
-5 -10 -11z"/>
<path d="M4835 2430 c3 -5 8 -10 11 -10 2 0 4 5 4 10 0 6 -5 10 -11 10 -5 0
-7 -4 -4 -10z"/>
<path d="M3560 2402 c0 -5 9 -18 20 -30 12 -12 18 -22 15 -22 -4 0 0 -7 9 -15
19 -19 32 -20 17 -1 -7 8 -11 20 -10 28 4 23 -13 48 -32 48 -10 0 -19 -4 -19
-8z"/>
<path d="M3766 2394 c-3 -9 -6 -25 -6 -37 0 -19 3 -17 20 11 24 39 24 42 6 42
-8 0 -17 -7 -20 -16z"/>
<path d="M3454 2376 c-70 -26 -144 -67 -164 -91 -11 -14 -11 -18 -1 -25 8 -4
10 -13 6 -19 -4 -8 1 -10 17 -6 30 8 131 -62 122 -85 -3 -8 -2 -11 2 -7 14 14
43 -36 49 -86 4 -29 1 -86 -5 -127 -7 -41 -13 -87 -14 -102 0 -14 -4 -30 -8
-34 -12 -12 -9 -42 4 -46 37 -13 138 53 138 88 0 9 22 13 77 13 77 0 77 0 110
-38 31 -37 105 -77 123 -66 5 3 4 20 -1 39 -5 18 -13 78 -17 132 -8 93 -7 130
2 179 2 11 4 24 5 28 5 31 132 126 173 129 29 2 26 19 -9 49 -37 34 -192 99
-232 99 -17 0 -84 -108 -95 -153 -4 -18 -11 -25 -19 -20 -8 4 -7 1 1 -10 13
-15 13 -51 -2 -147 -2 -14 0 -32 4 -40 4 -8 10 -38 12 -66 5 -50 4 -51 -24
-52 -33 -1 -35 5 -9 27 16 14 16 18 5 29 -12 11 -14 10 -14 -5 0 -10 -7 -26
-14 -36 -14 -18 -14 -18 -19 0 -4 16 -5 16 -6 1 0 -10 -6 -18 -11 -18 -6 0 -8
10 -5 23 8 31 10 172 4 234 -3 29 -2 50 3 47 4 -3 8 0 8 5 0 6 -4 11 -10 11
-5 0 -10 7 -10 15 0 17 -28 76 -40 85 -3 3 -15 20 -25 38 -23 38 -30 38 -111
8z"/>
<path d="M3640 2386 c0 -2 7 -6 15 -10 8 -3 15 -1 15 4 0 6 -7 10 -15 10 -8 0
-15 -2 -15 -4z"/>
<path d="M3735 2380 c-3 -5 -1 -10 4 -10 6 0 11 5 11 10 0 6 -2 10 -4 10 -3 0
-8 -4 -11 -10z"/>
<path d="M1370 2348 c0 -19 2 -20 10 -8 13 19 13 30 0 30 -5 0 -10 -10 -10
-22z"/>
<path d="M1177 2346 c-3 -8 -2 -18 3 -21 6 -4 10 2 10 11 0 21 9 14 15 -12 2
-11 9 -37 14 -59 13 -53 13 -226 0 -242 -6 -7 -9 -18 -6 -25 2 -7 -4 -30 -14
-50 -11 -21 -19 -40 -19 -43 0 -3 20 -5 45 -5 38 0 45 -3 45 -20 0 -11 5 -20
10 -20 6 0 8 11 4 26 -6 22 -4 25 12 21 45 -13 92 -11 108 6 10 9 13 17 7 17
-5 0 -13 -5 -16 -10 -8 -13 -35 6 -34 24 0 7 2 6 6 -1 2 -7 9 -13 15 -13 6 0
7 8 4 17 -4 9 -1 21 6 26 9 6 7 7 -7 2 -35 -12 -38 -11 -47 24 -7 24 -6 41 3
58 7 13 9 26 6 30 -4 3 -7 -1 -7 -11 0 -10 -5 -14 -11 -10 -15 9 -4 188 14
242 8 23 12 40 8 38 -29 -18 -97 -14 -152 9 -10 4 -19 0 -22 -9z"/>
<path d="M1400 2350 c0 -5 5 -10 11 -10 5 0 7 5 4 10 -3 6 -8 10 -11 10 -2 0
-4 -4 -4 -10z"/>
<path d="M3638 2353 c7 -3 16 -2 19 1 4 3 -2 6 -13 5 -11 0 -14 -3 -6 -6z"/>
<path d="M3675 2350 c-3 -5 -1 -10 4 -10 6 0 11 5 11 10 0 6 -2 10 -4 10 -3 0
-8 -4 -11 -10z"/>
<path d="M3735 2340 c-3 -5 -1 -10 4 -10 6 0 11 5 11 10 0 6 -2 10 -4 10 -3 0
-8 -4 -11 -10z"/>
<path d="M4780 2332 c0 -6 5 -14 10 -17 6 -4 7 -11 4 -17 -4 -6 -10 -5 -16 3
-7 10 -8 8 -2 -6 4 -11 7 -28 8 -37 0 -13 4 -14 13 -6 10 8 13 6 13 -7 0 -10
3 -16 6 -12 10 10 -7 48 -18 41 -6 -4 -8 -1 -6 7 3 8 12 13 19 11 9 -2 6 5 -6
20 -11 13 -21 25 -22 27 -2 2 -3 -1 -3 -7z"/>
<path d="M1140 2320 c0 -5 5 -10 10 -10 6 0 10 5 10 10 0 6 -4 10 -10 10 -5 0
-10 -4 -10 -10z"/>
<path d="M3692 2310 c0 -14 2 -19 5 -12 2 6 2 18 0 25 -3 6 -5 1 -5 -13z"/>
<path d="M4582 2318 c-7 -7 -12 -18 -12 -24 0 -7 -8 -15 -18 -18 -38 -12 -74
-62 -74 -102 0 -26 -8 -48 -24 -67 -34 -40 -33 -98 2 -130 22 -21 24 -28 15
-45 -6 -11 -11 -32 -11 -45 0 -27 44 -77 68 -77 13 0 13 -3 4 -12 -18 -18 -14
-46 9 -69 l21 -21 -43 -86 c-140 -289 -270 -661 -300 -860 -12 -77 -11 -83 7
-97 25 -19 221 -115 234 -115 5 0 10 12 10 26 0 14 3 24 8 22 4 -2 34 -17 67
-33 50 -24 76 -29 157 -33 144 -6 276 22 301 64 4 8 21 14 37 14 24 0 29 -5
32 -27 l3 -28 95 2 c155 3 311 44 380 101 l34 29 -33 89 c-87 234 -279 650
-347 749 -13 20 -24 38 -24 41 0 3 -27 48 -60 101 -33 52 -60 96 -60 98 0 1
15 6 33 9 47 9 81 48 80 90 -1 26 4 35 18 39 20 5 49 62 49 96 0 10 -9 29 -19
42 -13 17 -16 29 -10 41 12 23 -3 61 -35 86 -14 11 -26 26 -26 34 0 17 -31 48
-48 48 -7 0 -24 13 -38 30 -21 22 -31 27 -44 20 -11 -6 -31 -5 -53 1 -25 7
-43 7 -56 0 -10 -6 -22 -7 -26 -3 -5 4 -6 3 -3 -3 3 -5 2 -28 -2 -50 -4 -23
-8 -30 -9 -17 -1 23 -1 23 -27 -5 -14 -15 -23 -22 -19 -15 4 8 -1 12 -16 12
-18 0 -19 -2 -9 -15 11 -13 10 -14 -2 -10 -9 3 -21 18 -29 33 -13 27 -13 27
-20 -23 l-6 -50 -3 65 c-1 36 -2 69 -1 73 1 5 -3 6 -8 3 -5 -4 -13 -1 -16 4
-4 7 -19 8 -36 5 -20 -5 -38 -1 -54 9 -29 19 -28 19 -43 4z m285 -160 c-3 -8
-6 -5 -6 6 -1 11 2 17 5 13 3 -3 4 -12 1 -19z m-16 -41 c-10 -9 -11 -8 -5 6 3
10 9 15 12 12 3 -3 0 -11 -7 -18z m-21 -32 c-14 -16 -46 -20 -54 -6 -3 4 5 6
18 4 13 -3 27 0 30 6 4 6 10 11 13 11 3 0 0 -7 -7 -15z m183 -135 c-7 -15 -22
-30 -34 -33 -17 -4 -19 -2 -13 16 20 64 23 68 42 56 17 -11 18 -15 5 -39z
m-103 -152 c0 -11 4 -28 10 -38 8 -16 5 -20 -28 -31 -49 -17 -78 -13 -107 16
l-23 24 41 24 c52 30 107 33 107 5z m-217 -189 c18 -33 24 -139 7 -139 -5 0
-10 4 -10 9 0 5 -13 12 -29 16 -33 7 -51 40 -51 94 0 45 5 51 39 51 19 0 31
-9 44 -31z"/>
<path d="M2596 2304 c-22 -22 -21 -48 2 -39 9 4 32 9 50 12 37 7 51 21 31 34
-22 14 -66 10 -83 -7z"/>
<path d="M2218 2299 c-52 -20 -34 -32 60 -42 40 -5 42 -4 36 16 -8 28 -6 26
-40 31 -16 3 -41 0 -56 -5z"/>
<path d="M1445 2279 c-4 -12 -2 -26 3 -31 8 -8 9 -4 5 11 -3 12 -1 21 6 21 6
0 11 -5 11 -12 0 -6 2 -9 5 -6 7 7 -5 38 -15 38 -5 0 -12 -9 -15 -21z"/>
<path d="M1112 2270 c0 -14 2 -19 5 -12 2 6 2 18 0 25 -3 6 -5 1 -5 -13z"/>
<path d="M2166 2206 c-40 -84 -82 -367 -64 -432 6 -21 13 -72 15 -111 4 -68 6
-73 28 -73 18 0 24 7 30 38 3 20 31 127 60 238 44 163 52 207 45 237 -9 44 5
50 21 10 l11 -28 9 24 c13 33 4 51 -25 51 -13 0 -27 7 -30 16 -9 24 -1 28 35
15 39 -14 42 -11 29 24 -9 24 -14 26 -50 22 -22 -2 -51 1 -64 9 -24 12 -26 11
-50 -40z"/>
<path d="M2645 2253 c-11 -2 -30 -6 -42 -9 -18 -3 -23 -11 -23 -35 0 -28 1
-29 16 -15 21 22 44 20 44 -3 0 -12 -9 -21 -25 -25 -28 -7 -32 -23 -12 -51 13
-17 15 -15 22 16 l9 34 4 -45 c2 -24 -1 -63 -7 -86 -14 -54 -14 -121 -1 -129
14 -9 56 -74 102 -160 l37 -70 1 100 c0 114 -14 242 -36 330 -16 62 -55 156
-64 154 -3 -1 -14 -3 -25 -6z"/>
<path d="M1490 2242 c0 -4 9 -13 20 -20 19 -12 20 -11 8 8 -13 20 -28 27 -28
12z"/>
<path d="M3230 2225 c-7 -9 -11 -17 -9 -20 3 -2 10 5 17 15 14 24 10 26 -8 5z"/>
<path d="M4066 2228 c3 -5 10 -6 15 -3 13 9 11 12 -6 12 -8 0 -12 -4 -9 -9z"/>
<path d="M1341 2204 c0 -11 3 -14 6 -6 3 7 2 16 -1 19 -3 4 -6 -2 -5 -13z"/>
<path d="M3375 2180 c-3 -5 1 -10 10 -10 9 0 13 5 10 10 -3 6 -8 10 -10 10 -2
0 -7 -4 -10 -10z"/>
<path d="M3970 2169 c0 -5 5 -7 10 -4 6 3 10 8 10 11 0 2 -4 4 -10 4 -5 0 -10
-5 -10 -11z"/>
<path d="M3235 2162 c-14 -14 -1 -22 34 -22 41 0 106 -22 95 -32 -3 -4 2 -5
13 -2 10 2 25 0 33 -6 13 -9 13 -11 0 -21 -12 -8 -11 -9 7 -4 12 3 24 1 28 -5
9 -15 25 -12 25 5 0 19 -49 50 -110 70 -49 16 -116 25 -125 17z"/>
<path d="M4070 2160 c-91 -11 -227 -101 -146 -96 13 0 22 6 19 12 -4 12 54 44
80 44 9 0 19 5 22 10 3 6 26 10 51 10 24 0 44 4 44 9 0 14 -21 17 -70 11z"/>
<path d="M1336 2125 c4 -8 8 -15 10 -15 2 0 4 7 4 15 0 8 -4 15 -10 15 -5 0
-7 -7 -4 -15z"/>
<path d="M3175 2100 c-3 -5 -1 -10 4 -10 6 0 11 5 11 10 0 6 -2 10 -4 10 -3 0
-8 -4 -11 -10z"/>
<path d="M4190 2105 c0 -5 5 -17 10 -25 5 -8 10 -10 10 -5 0 6 -5 17 -10 25
-5 8 -10 11 -10 5z"/>
<path d="M1201 2084 c0 -11 3 -14 6 -6 3 7 2 16 -1 19 -3 4 -6 -2 -5 -13z"/>
<path d="M3970 2076 c0 -2 7 -7 16 -10 8 -3 12 -2 9 4 -6 10 -25 14 -25 6z"/>
<path d="M4170 2059 c0 -5 5 -7 10 -4 6 3 10 8 10 11 0 2 -4 4 -10 4 -5 0 -10
-5 -10 -11z"/>
<path d="M1351 2024 c0 -11 3 -14 6 -6 3 7 2 16 -1 19 -3 4 -6 -2 -5 -13z"/>
<path d="M3312 2015 c-18 -8 -34 -15 -37 -15 -2 0 -17 -14 -34 -30 -23 -23
-26 -32 -16 -40 9 -8 19 -3 37 18 34 40 106 66 163 59 46 -7 71 6 32 17 -38
10 -111 6 -145 -9z"/>
<path d="M3903 2015 c-7 -21 6 -33 17 -16 10 17 95 9 137 -13 46 -23 76 -54
69 -71 -3 -8 -2 -15 3 -15 5 0 11 8 15 18 3 9 9 23 12 31 4 8 2 11 -3 8 -6 -4
-19 3 -29 14 -34 38 -89 59 -154 59 -45 0 -62 -4 -67 -15z"/>
<path d="M1177 1973 c-4 -3 -7 -13 -7 -22 1 -13 3 -13 11 2 11 19 8 33 -4 20z"/>
<path d="M1410 1962 c0 -12 19 -26 26 -19 2 2 -2 10 -11 17 -9 8 -15 8 -15 2z"/>
<path d="M3400 1930 c-19 -5 -36 -13 -38 -19 -2 -6 -10 -11 -17 -11 -17 0 -55
-48 -55 -70 0 -9 7 -17 14 -17 8 0 14 3 13 7 -1 3 9 23 23 43 20 29 33 38 67
43 23 3 46 3 52 -1 7 -3 11 2 11 14 0 23 -12 24 -70 11z"/>
<path d="M3900 1920 c0 -13 7 -15 29 -12 37 5 94 -22 111 -53 15 -27 30 -33
30 -11 0 21 -40 66 -69 78 -14 5 -43 11 -63 12 -29 2 -38 -2 -38 -14z"/>
<path d="M1150 1920 c0 -5 5 -10 10 -10 6 0 10 5 10 10 0 6 -4 10 -10 10 -5 0
-10 -4 -10 -10z"/>
<path d="M2484 1833 c-7 -45 1 -589 15 -1073 l6 -215 70 4 c39 1 73 5 78 8 16
10 3 392 -23 678 -24 254 -56 476 -87 588 -12 43 -20 57 -34 57 -14 0 -19 -11
-25 -47z"/>
<path d="M3331 1765 c-1 -25 -3 -27 -12 -12 -17 29 -25 20 -48 -55 -36 -124
-27 -170 40 -212 25 -16 25 -16 47 32 35 79 44 137 28 177 -8 19 -22 35 -30
35 -9 0 -16 12 -19 33 l-4 32 -2 -30z"/>
<path d="M3666 1695 c-17 -187 -58 -304 -97 -279 -5 3 -9 41 -9 85 0 44 4 78
9 75 4 -3 6 6 3 19 -7 37 -19 30 -25 -12 -10 -75 -37 -228 -42 -241 -3 -8 0
-10 7 -6 7 5 40 9 74 9 60 2 61 1 57 -24 l-3 -26 8 25 c9 28 45 39 68 20 9 -8
14 -9 14 -2 0 6 -5 12 -10 14 -11 3 -32 283 -24 314 3 11 -1 39 -9 64 l-13 45
-8 -80z"/>
<path d="M3760 1761 c0 -10 19 -25 25 -20 1 2 -3 10 -11 17 -8 7 -14 8 -14 3z"/>
<path d="M3795 1760 c3 -5 8 -10 11 -10 2 0 4 5 4 10 0 6 -5 10 -11 10 -5 0
-7 -4 -4 -10z"/>
<path d="M4047 1750 c-9 -11 -23 -20 -32 -20 -18 0 -31 -24 -39 -77 -5 -33 -1
-57 19 -105 14 -34 23 -70 20 -79 -3 -10 -1 -20 4 -24 6 -3 8 0 5 9 -3 9 2 17
15 21 11 3 34 19 50 35 25 23 31 36 31 72 0 44 -38 188 -49 188 -4 0 -14 -9
-24 -20z"/>
<path d="M1030 1750 c0 -5 5 -10 11 -10 5 0 7 5 4 10 -3 6 -8 10 -11 10 -2 0
-4 -4 -4 -10z"/>
<path d="M1001 1743 c0 -6 -4 -20 -7 -30 -5 -14 -4 -15 5 -7 7 7 11 20 8 30
-3 11 -5 14 -6 7z"/>
<path d="M1031 1714 c0 -11 3 -14 6 -6 3 7 2 16 -1 19 -3 4 -6 -2 -5 -13z"/>
<path d="M1337 1713 c-4 -3 -7 -11 -7 -17 0 -6 5 -5 12 2 6 6 9 14 7 17 -3 3
-9 2 -12 -2z"/>
<path d="M1225 1690 c3 -5 8 -10 11 -10 2 0 4 5 4 10 0 6 -5 10 -11 10 -5 0
-7 -4 -4 -10z"/>
<path d="M1010 1680 c0 -5 4 -10 9 -10 6 0 13 5 16 10 3 6 -1 10 -9 10 -9 0
-16 -4 -16 -10z"/>
<path d="M3478 1588 c5 -5 16 -8 23 -6 8 3 3 7 -10 11 -17 4 -21 3 -13 -5z"/>
<path d="M3962 1555 c0 -16 2 -22 5 -12 2 9 2 23 0 30 -3 6 -5 -1 -5 -18z"/>
<path d="M941 1524 c0 -11 3 -14 6 -6 3 7 2 16 -1 19 -3 4 -6 -2 -5 -13z"/>
<path d="M3929 1488 c0 -24 -2 -68 -3 -98 -2 -30 -1 -49 1 -42 3 6 20 12 38
12 19 0 36 4 39 9 7 11 -55 161 -66 161 -5 0 -8 -19 -9 -42z"/>
<path d="M978 1493 c7 -3 16 -2 19 1 4 3 -2 6 -13 5 -11 0 -14 -3 -6 -6z"/>
<path d="M1016 1491 c-5 -7 -3 -18 3 -24 14 -14 20 -6 11 17 -5 15 -9 16 -14
7z"/>
<path d="M3742 1468 c-1 -20 -5 -45 -8 -55 -5 -17 -5 -17 6 0 6 9 9 34 7 55
l-4 37 -1 -37z"/>
<path d="M1530 1479 c0 -5 5 -7 10 -4 6 3 10 8 10 11 0 2 -4 4 -10 4 -5 0 -10
-5 -10 -11z"/>
<path d="M961 1477 c2 -1 15 -11 29 -22 l25 -20 -19 23 c-11 12 -24 22 -29 22
-6 0 -8 -1 -6 -3z"/>
<path d="M1204 1444 c0 -30 2 -33 9 -16 5 12 5 26 0 36 -7 12 -9 7 -9 -20z"/>
<path d="M1240 1462 c6 -13 14 -21 18 -18 3 4 -2 14 -12 24 -18 16 -18 16 -6
-6z"/>
<path d="M1554 1458 l-19 -23 23 19 c21 18 27 26 19 26 -2 0 -12 -10 -23 -22z"/>
<path d="M1300 1449 c7 -11 14 -19 16 -16 7 7 -7 37 -17 37 -6 0 -5 -9 1 -21z"/>
<path d="M3335 1431 c-6 -11 13 -26 22 -17 4 3 1 6 -6 6 -7 0 -9 5 -6 10 3 6
4 10 1 10 -3 0 -7 -4 -11 -9z"/>
<path d="M4007 1429 c7 -7 15 -10 18 -7 3 3 -2 9 -12 12 -14 6 -15 5 -6 -5z"/>
<path d="M1090 1410 c20 -13 33 -13 25 0 -3 6 -14 10 -23 10 -15 0 -15 -2 -2
-10z"/>
<path d="M1418 1403 c7 -3 16 -2 19 1 4 3 -2 6 -13 5 -11 0 -14 -3 -6 -6z"/>
<path d="M3871 1314 c0 -11 3 -14 6 -6 3 7 2 16 -1 19 -3 4 -6 -2 -5 -13z"/>
<path d="M3740 1269 c0 -19 4 -41 9 -48 6 -10 8 1 4 30 -7 55 -13 63 -13 18z"/>
<path d="M3612 1275 c0 -11 4 -33 8 -50 l8 -30 0 30 c0 17 -3 39 -8 50 l-9 20
1 -20z"/>
<path d="M3870 1280 c0 -5 5 -10 11 -10 5 0 7 5 4 10 -3 6 -8 10 -11 10 -2 0
-4 -4 -4 -10z"/>
<path d="M3491 1244 c0 -11 3 -14 6 -6 3 7 2 16 -1 19 -3 4 -6 -2 -5 -13z"/>
<path d="M3511 1244 c0 -11 3 -14 6 -6 3 7 2 16 -1 19 -3 4 -6 -2 -5 -13z"/>
<path d="M3602 1220 c0 -14 2 -19 5 -12 2 6 2 18 0 25 -3 6 -5 1 -5 -13z"/>
<path d="M3873 1185 c0 -22 2 -30 4 -17 2 12 2 30 0 40 -3 9 -5 -1 -4 -23z"/>
<path d="M3501 1194 c0 -11 3 -14 6 -6 3 7 2 16 -1 19 -3 4 -6 -2 -5 -13z"/>
<path d="M3611 1174 c0 -11 3 -14 6 -6 3 7 2 16 -1 19 -3 4 -6 -2 -5 -13z"/>
<path d="M3480 1131 c0 -17 4 -32 8 -35 4 -2 6 11 4 30 -5 42 -12 45 -12 5z"/>
<path d="M3602 1095 c0 -16 2 -22 5 -12 2 9 2 23 0 30 -3 6 -5 -1 -5 -18z"/>
<path d="M3881 1115 c0 -5 4 -19 8 -29 7 -19 8 -19 13 2 4 12 2 20 -2 17 -5
-3 -11 1 -13 7 -3 7 -5 9 -6 3z"/>
<path d="M3732 1070 c0 -19 2 -27 5 -17 2 9 2 25 0 35 -3 9 -5 1 -5 -18z"/>
<path d="M3622 1050 c0 -14 2 -19 5 -12 2 6 2 18 0 25 -3 6 -5 1 -5 -13z"/>
<path d="M3861 1063 c0 -5 7 -24 15 -43 9 -22 12 -26 9 -10 -2 14 -5 33 -5 43
0 9 -4 17 -10 17 -5 0 -10 -3 -9 -7z"/>
<path d="M3481 1048 c-1 -9 -4 -25 -7 -35 -5 -15 -4 -15 5 -3 9 13 11 12 11
-5 1 -18 2 -17 11 4 5 13 7 26 4 29 -3 3 -5 -1 -6 -9 -1 -8 -5 -3 -9 11 -5 15
-8 18 -9 8z"/>
<path d="M3751 1034 c0 -11 3 -14 6 -6 3 7 2 16 -1 19 -3 4 -6 -2 -5 -13z"/>
<path d="M3846 1015 c8 -37 14 -45 14 -19 0 10 -5 26 -10 34 -8 11 -9 7 -4
-15z"/>
<path d="M3751 994 c0 -11 3 -14 6 -6 3 7 2 16 -1 19 -3 4 -6 -2 -5 -13z"/>
<path d="M3502 940 c0 -14 2 -19 5 -12 2 6 2 18 0 25 -3 6 -5 1 -5 -13z"/>
<path d="M3511 894 c0 -11 3 -14 6 -6 3 7 2 16 -1 19 -3 4 -6 -2 -5 -13z"/>
<path d="M3882 890 c0 -14 2 -19 5 -12 2 6 2 18 0 25 -3 6 -5 1 -5 -13z"/>
<path d="M3842 875 c0 -16 2 -22 5 -12 2 9 2 23 0 30 -3 6 -5 -1 -5 -18z"/>
<path d="M3493 855 c-3 -9 -3 -19 1 -22 3 -4 6 1 6 11 0 10 5 14 12 10 7 -4 8
-3 4 4 -10 16 -15 15 -23 -3z"/>
<path d="M3821 844 c0 -11 3 -14 6 -6 3 7 2 16 -1 19 -3 4 -6 -2 -5 -13z"/>
<path d="M3800 793 c0 -24 3 -33 9 -25 7 12 4 62 -5 62 -2 0 -4 -17 -4 -37z"/>
<path d="M3846 783 c-2 -10 -8 -34 -12 -53 l-8 -35 -7 30 c-6 27 -7 28 -8 5 0
-14 3 -31 8 -39 9 -13 20 13 35 82 7 30 0 38 -8 10z"/>
<path d="M3552 760 c0 -14 2 -19 5 -12 2 6 2 18 0 25 -3 6 -5 1 -5 -13z"/>
<path d="M3581 764 c0 -11 3 -14 6 -6 3 7 2 16 -1 19 -3 4 -6 -2 -5 -13z"/>
<path d="M3571 674 c0 -11 3 -14 6 -6 3 7 2 16 -1 19 -3 4 -6 -2 -5 -13z"/>
<path d="M3791 674 c0 -11 3 -14 6 -6 3 7 2 16 -1 19 -3 4 -6 -2 -5 -13z"/>
<path d="M3541 654 c0 -11 3 -14 6 -6 3 7 2 16 -1 19 -3 4 -6 -2 -5 -13z"/>
<path d="M3811 654 c0 -11 3 -14 6 -6 3 7 2 16 -1 19 -3 4 -6 -2 -5 -13z"/>
<path d="M3830 650 c0 -10 -7 -23 -16 -28 -12 -7 -15 -17 -9 -41 5 -25 12 -31
33 -31 15 0 52 -2 82 -5 30 -2 48 -2 38 1 -9 3 -19 16 -22 29 -4 16 -16 27
-31 30 -14 3 -36 7 -49 10 -19 4 -22 10 -18 30 2 14 2 25 -2 25 -3 0 -6 -9 -6
-20z"/>
<path d="M1032 630 c-18 -4 -34 -9 -36 -11 -1 -2 -10 -17 -20 -33 l-18 -29 73
7 c41 4 75 9 77 11 2 1 4 15 5 31 2 24 -2 29 -23 31 -14 1 -40 -2 -58 -7z"/>
<path d="M1346 631 c-4 -5 -4 -21 -1 -34 6 -21 16 -27 68 -37 34 -6 72 -14 85
-17 24 -6 24 -5 -5 35 -15 23 -35 43 -43 46 -41 12 -99 16 -104 7z"/>
<path d="M3525 620 c-2 -4 -22 -10 -44 -14 -29 -4 -41 -12 -47 -29 -4 -12 -12
-26 -18 -30 -6 -5 23 -5 64 -1 41 3 77 8 78 9 2 2 5 18 5 36 2 23 -3 32 -15
34 -10 2 -20 0 -23 -5z"/>
</g>
</svg>
